<mxfile host="app.diagrams.net" modified="2020-08-10T23:27:11.458Z" agent="5.0 (Windows NT 10.0; Win64; x64) AppleWebKit/537.36 (KHTML, like Gecko) Chrome/84.0.4147.105 Safari/537.36 Edg/84.0.522.52" etag="s21CohYoCFImMGVeULFL" version="13.6.2" type="github">
  <diagram id="2IvvgxLNYn-P6ZhRFd-X" name="Page-1">
    <mxGraphModel dx="1367" dy="547" grid="1" gridSize="10" guides="1" tooltips="1" connect="1" arrows="1" fold="1" page="1" pageScale="1" pageWidth="827" pageHeight="1169" math="0" shadow="0">
      <root>
        <mxCell id="0" />
        <mxCell id="1" parent="0" />
        <mxCell id="yNNCiybTPI3E3o4Lur7I-1" value="INICIO" style="ellipse;whiteSpace=wrap;html=1;" vertex="1" parent="1">
          <mxGeometry x="220" width="120" height="80" as="geometry" />
        </mxCell>
        <mxCell id="yNNCiybTPI3E3o4Lur7I-2" value="Coloque Numero do cartao" style="shape=parallelogram;perimeter=parallelogramPerimeter;whiteSpace=wrap;html=1;fixedSize=1;" vertex="1" parent="1">
          <mxGeometry x="155" y="160" width="250" height="80" as="geometry" />
        </mxCell>
        <mxCell id="yNNCiybTPI3E3o4Lur7I-3" value="Data de validade do cartao" style="shape=parallelogram;perimeter=parallelogramPerimeter;whiteSpace=wrap;html=1;fixedSize=1;" vertex="1" parent="1">
          <mxGeometry x="155" y="310" width="240" height="90" as="geometry" />
        </mxCell>
        <mxCell id="yNNCiybTPI3E3o4Lur7I-4" value="Codigo de seguranca" style="shape=parallelogram;perimeter=parallelogramPerimeter;whiteSpace=wrap;html=1;fixedSize=1;" vertex="1" parent="1">
          <mxGeometry x="155" y="480" width="230" height="100" as="geometry" />
        </mxCell>
        <mxCell id="yNNCiybTPI3E3o4Lur7I-5" value="Valor da compra" style="shape=parallelogram;perimeter=parallelogramPerimeter;whiteSpace=wrap;html=1;fixedSize=1;" vertex="1" parent="1">
          <mxGeometry x="150" y="640" width="220" height="100" as="geometry" />
        </mxCell>
        <mxCell id="yNNCiybTPI3E3o4Lur7I-7" value="Valor da compra &amp;lt;= Limite do cartao" style="rhombus;whiteSpace=wrap;html=1;" vertex="1" parent="1">
          <mxGeometry x="140" y="800" width="240" height="130" as="geometry" />
        </mxCell>
        <mxCell id="yNNCiybTPI3E3o4Lur7I-8" value="FIM" style="ellipse;whiteSpace=wrap;html=1;" vertex="1" parent="1">
          <mxGeometry x="210" y="1080" width="120" height="80" as="geometry" />
        </mxCell>
        <mxCell id="yNNCiybTPI3E3o4Lur7I-9" value="Compra Efetivada" style="shape=document;whiteSpace=wrap;html=1;boundedLbl=1;" vertex="1" parent="1">
          <mxGeometry x="530" y="840" width="160" height="120" as="geometry" />
        </mxCell>
        <mxCell id="yNNCiybTPI3E3o4Lur7I-11" value="Compra Negada" style="shape=document;whiteSpace=wrap;html=1;boundedLbl=1;" vertex="1" parent="1">
          <mxGeometry x="-90" y="840" width="160" height="120" as="geometry" />
        </mxCell>
        <mxCell id="yNNCiybTPI3E3o4Lur7I-12" value="SIM" style="endArrow=classic;html=1;exitX=1;exitY=0.5;exitDx=0;exitDy=0;entryX=-0.016;entryY=0.197;entryDx=0;entryDy=0;entryPerimeter=0;" edge="1" parent="1" source="yNNCiybTPI3E3o4Lur7I-7" target="yNNCiybTPI3E3o4Lur7I-9">
          <mxGeometry width="50" height="50" relative="1" as="geometry">
            <mxPoint x="414" y="864.5" as="sourcePoint" />
            <mxPoint x="494" y="864.5" as="targetPoint" />
          </mxGeometry>
        </mxCell>
        <mxCell id="yNNCiybTPI3E3o4Lur7I-13" value="NAO" style="endArrow=classic;html=1;" edge="1" parent="1">
          <mxGeometry width="50" height="50" relative="1" as="geometry">
            <mxPoint x="140" y="864.5" as="sourcePoint" />
            <mxPoint x="60" y="864.5" as="targetPoint" />
          </mxGeometry>
        </mxCell>
        <mxCell id="yNNCiybTPI3E3o4Lur7I-14" value="" style="endArrow=classic;html=1;exitX=1.004;exitY=0.883;exitDx=0;exitDy=0;exitPerimeter=0;entryX=0;entryY=0;entryDx=0;entryDy=0;" edge="1" parent="1" source="yNNCiybTPI3E3o4Lur7I-11" target="yNNCiybTPI3E3o4Lur7I-8">
          <mxGeometry width="50" height="50" relative="1" as="geometry">
            <mxPoint x="150" y="1070" as="sourcePoint" />
            <mxPoint x="200" y="1020" as="targetPoint" />
          </mxGeometry>
        </mxCell>
        <mxCell id="yNNCiybTPI3E3o4Lur7I-15" value="" style="endArrow=classic;html=1;" edge="1" parent="1" source="yNNCiybTPI3E3o4Lur7I-9" target="yNNCiybTPI3E3o4Lur7I-8">
          <mxGeometry width="50" height="50" relative="1" as="geometry">
            <mxPoint x="440" y="1070" as="sourcePoint" />
            <mxPoint x="490" y="1020" as="targetPoint" />
          </mxGeometry>
        </mxCell>
        <mxCell id="yNNCiybTPI3E3o4Lur7I-17" value="" style="endArrow=classic;html=1;entryX=0.5;entryY=0;entryDx=0;entryDy=0;" edge="1" parent="1" source="yNNCiybTPI3E3o4Lur7I-1" target="yNNCiybTPI3E3o4Lur7I-2">
          <mxGeometry width="50" height="50" relative="1" as="geometry">
            <mxPoint x="270" y="140" as="sourcePoint" />
            <mxPoint x="320" y="90" as="targetPoint" />
          </mxGeometry>
        </mxCell>
        <mxCell id="yNNCiybTPI3E3o4Lur7I-18" value="" style="endArrow=classic;html=1;entryX=0.5;entryY=0;entryDx=0;entryDy=0;" edge="1" parent="1">
          <mxGeometry width="50" height="50" relative="1" as="geometry">
            <mxPoint x="279.5" y="230" as="sourcePoint" />
            <mxPoint x="279.5" y="310" as="targetPoint" />
          </mxGeometry>
        </mxCell>
        <mxCell id="yNNCiybTPI3E3o4Lur7I-19" value="" style="endArrow=classic;html=1;entryX=0.5;entryY=0;entryDx=0;entryDy=0;" edge="1" parent="1">
          <mxGeometry width="50" height="50" relative="1" as="geometry">
            <mxPoint x="274.5" y="400" as="sourcePoint" />
            <mxPoint x="274.5" y="480" as="targetPoint" />
          </mxGeometry>
        </mxCell>
        <mxCell id="yNNCiybTPI3E3o4Lur7I-20" value="" style="endArrow=classic;html=1;entryX=0.5;entryY=0;entryDx=0;entryDy=0;" edge="1" parent="1">
          <mxGeometry width="50" height="50" relative="1" as="geometry">
            <mxPoint x="269.5" y="570" as="sourcePoint" />
            <mxPoint x="269.5" y="650" as="targetPoint" />
          </mxGeometry>
        </mxCell>
        <mxCell id="yNNCiybTPI3E3o4Lur7I-21" value="" style="endArrow=classic;html=1;entryX=0.5;entryY=0;entryDx=0;entryDy=0;" edge="1" parent="1">
          <mxGeometry width="50" height="50" relative="1" as="geometry">
            <mxPoint x="259.5" y="730" as="sourcePoint" />
            <mxPoint x="259.5" y="810" as="targetPoint" />
          </mxGeometry>
        </mxCell>
      </root>
    </mxGraphModel>
  </diagram>
</mxfile>
